<svg width="16" height="18" viewBox="0 0 16 18" fill="none" xmlns="http://www.w3.org/2000/svg">
<g clip-path="url(#clip0_419_166)">
<path d="M5.42857 2.25H10.5714V0.84375C10.5714 0.37793 10.9536 0 11.4286 0C11.9036 0 12.2857 0.37793 12.2857 0.84375V2.25H13.7143C14.975 2.25 16 3.25723 16 4.5V15.75C16 16.991 14.975 18 13.7143 18H2.28571C1.02321 18 0 16.991 0 15.75V4.5C0 3.25723 1.02321 2.25 2.28571 2.25H3.71429V0.84375C3.71429 0.37793 4.09643 0 4.57143 0C5.04643 0 5.42857 0.37793 5.42857 0.84375V2.25ZM1.71429 8.71875H4.57143V6.75H1.71429V8.71875ZM1.71429 10.4062V12.6562H4.57143V10.4062H1.71429ZM6.28571 10.4062V12.6562H9.71429V10.4062H6.28571ZM11.4286 10.4062V12.6562H14.2857V10.4062H11.4286ZM14.2857 6.75H11.4286V8.71875H14.2857V6.75ZM14.2857 14.3438H11.4286V16.3125H13.7143C14.0286 16.3125 14.2857 16.0594 14.2857 15.75V14.3438ZM9.71429 14.3438H6.28571V16.3125H9.71429V14.3438ZM4.57143 14.3438H1.71429V15.75C1.71429 16.0594 1.97 16.3125 2.28571 16.3125H4.57143V14.3438ZM9.71429 6.75H6.28571V8.71875H9.71429V6.75Z" fill="white"/>
</g>
<defs>
<clipPath id="clip0_419_166">
<rect width="16" height="18" fill="white"/>
</clipPath>
</defs>
</svg>
