<svg width="20" height="20" viewBox="0 0 20 20" fill="none" xmlns="http://www.w3.org/2000/svg">
<path d="M8.88889 9.0625C9.41667 9.0625 9.84127 9.48047 9.84127 10V11.875H11.746C12.2738 11.875 12.6984 12.293 12.6984 12.8125C12.6984 13.332 12.2738 13.75 11.746 13.75H9.84127V15.625C9.84127 16.1445 9.41667 16.5625 8.88889 16.5625C8.36111 16.5625 7.93651 16.1445 7.93651 15.625V13.75H6.03175C5.50397 13.75 5.07937 13.332 5.07937 12.8125C5.07937 12.293 5.50397 11.875 6.03175 11.875H7.93651V10C7.93651 9.48047 8.36111 9.0625 8.88889 9.0625ZM6.03175 2.5H11.746V0.9375C11.746 0.419922 12.1706 0 12.6984 0C13.2262 0 13.6508 0.419922 13.6508 0.9375V2.5H15.2381C16.6389 2.5 17.7778 3.61914 17.7778 5V17.5C17.7778 18.8789 16.6389 20 15.2381 20H2.53968C1.1369 20 0 18.8789 0 17.5V5C0 3.61914 1.1369 2.5 2.53968 2.5H4.12698V0.9375C4.12698 0.419922 4.55159 0 5.07937 0C5.60714 0 6.03175 0.419922 6.03175 0.9375V2.5ZM1.90476 17.5C1.90476 17.8438 2.18889 18.125 2.53968 18.125H15.2381C15.5873 18.125 15.873 17.8438 15.873 17.5V7.5H1.90476V17.5Z" fill="black"/>
</svg>
