<svg width="17" height="15" viewBox="0 0 17 15" fill="none" xmlns="http://www.w3.org/2000/svg">
<g clip-path="url(#clip0_414_54)">
<path d="M8.49999 0.9375C6.11527 0.9375 4.20572 2.01562 2.81562 3.29883C1.43437 4.57031 0.510585 6.09375 0.0737793 7.13965C-0.0236165 7.37109 -0.0236165 7.62891 0.0737793 7.86035C0.510585 8.90625 1.43437 10.4297 2.81562 11.7012C4.20572 12.9844 6.11527 14.0625 8.49999 14.0625C10.8847 14.0625 12.7943 12.9844 14.1844 11.7012C15.5656 10.4268 16.4894 8.90625 16.9292 7.86035C17.0266 7.62891 17.0266 7.37109 16.9292 7.13965C16.4894 6.09375 15.5656 4.57031 14.1844 3.29883C12.7943 2.01562 10.8847 0.9375 8.49999 0.9375ZM12.75 7.5C12.75 9.8291 10.8463 11.7188 8.49999 11.7188C6.15364 11.7188 4.24999 9.8291 4.24999 7.5C4.24999 5.1709 6.15364 3.28125 8.49999 3.28125C10.8463 3.28125 12.75 5.1709 12.75 7.5ZM8.49999 5.625C8.49999 6.65918 7.65295 7.5 6.61111 7.5C6.2717 7.5 5.95295 7.41211 5.67847 7.25391C5.67256 7.33594 5.66666 7.41504 5.66666 7.5C5.66666 9.05273 6.93576 10.3125 8.49999 10.3125C10.0642 10.3125 11.3333 9.05273 11.3333 7.5C11.3333 5.94727 10.0642 4.6875 8.49999 4.6875C8.41736 4.6875 8.33472 4.69043 8.25208 4.69922C8.4085 4.97168 8.49999 5.28809 8.49999 5.625Z" fill="white"/>
</g>
<defs>
<clipPath id="clip0_414_54">
<rect width="17" height="15" fill="white"/>
</clipPath>
</defs>
</svg>
