<svg width="20" height="17" viewBox="0 0 20 17" fill="none" xmlns="http://www.w3.org/2000/svg">
<path d="M4.44444 6.07143C3.82986 6.07143 3.33333 5.52879 3.33333 4.85714C3.33333 4.18549 3.82986 3.64286 4.44444 3.64286C5.05903 3.64286 5.55556 4.18549 5.55556 4.85714C5.55556 5.52879 5.05903 6.07143 4.44444 6.07143ZM6.94444 4.85714C6.94444 4.35246 7.31597 3.94643 7.77778 3.94643H15.5556C16.0174 3.94643 16.3889 4.35246 16.3889 4.85714C16.3889 5.36183 16.0174 5.76786 15.5556 5.76786H7.77778C7.31597 5.76786 6.94444 5.36183 6.94444 4.85714ZM6.94444 8.5C6.94444 7.99531 7.31597 7.58929 7.77778 7.58929H15.5556C16.0174 7.58929 16.3889 7.99531 16.3889 8.5C16.3889 9.00469 16.0174 9.41071 15.5556 9.41071H7.77778C7.31597 9.41071 6.94444 9.00469 6.94444 8.5ZM6.94444 12.1429C6.94444 11.6382 7.31597 11.2321 7.77778 11.2321H15.5556C16.0174 11.2321 16.3889 11.6382 16.3889 12.1429C16.3889 12.6475 16.0174 13.0536 15.5556 13.0536H7.77778C7.31597 13.0536 6.94444 12.6475 6.94444 12.1429ZM4.44444 7.28571C5.05903 7.28571 5.55556 7.82835 5.55556 8.5C5.55556 9.17165 5.05903 9.71429 4.44444 9.71429C3.82986 9.71429 3.33333 9.17165 3.33333 8.5C3.33333 7.82835 3.82986 7.28571 4.44444 7.28571ZM4.44444 13.3571C3.82986 13.3571 3.33333 12.8145 3.33333 12.1429C3.33333 11.4712 3.82986 10.9286 4.44444 10.9286C5.05903 10.9286 5.55556 11.4712 5.55556 12.1429C5.55556 12.8145 5.05903 13.3571 4.44444 13.3571ZM0 2.42857C0 1.08717 0.994792 0 2.22222 0H17.7778C19.0035 0 20 1.08717 20 2.42857V14.5714C20 15.9109 19.0035 17 17.7778 17H2.22222C0.994792 17 0 15.9109 0 14.5714V2.42857ZM1.66667 2.42857V14.5714C1.66667 14.9054 1.91528 15.1786 2.22222 15.1786H17.7778C18.0833 15.1786 18.3333 14.9054 18.3333 14.5714V2.42857C18.3333 2.09313 18.0833 1.82143 17.7778 1.82143H2.22222C1.91528 1.82143 1.66667 2.09313 1.66667 2.42857Z" fill="black"/>
</svg>
