<svg width="34" height="27" viewBox="0 0 34 27" fill="none" xmlns="http://www.w3.org/2000/svg">
<g clip-path="url(#clip0_411_5)">
<path d="M7.65 8.4375C5.30188 8.4375 3.4 6.54961 3.4 4.21875C3.4 1.88789 5.30188 0 7.65 0C9.99813 0 11.9 1.88789 11.9 4.21875C11.9 6.54961 9.99813 8.4375 7.65 8.4375ZM27.2 8.4375C24.8519 8.4375 22.95 6.54961 22.95 4.21875C22.95 1.88789 24.8519 0 27.2 0C29.5481 0 31.45 1.88789 31.45 4.21875C31.45 6.54961 29.5481 8.4375 27.2 8.4375ZM0 15.7518C0 12.6457 2.53937 10.125 5.66844 10.125H7.93687C8.78156 10.125 9.58375 10.3096 10.3063 10.6365C10.2372 11.0162 10.2053 11.4117 10.2053 11.8125C10.2053 13.827 11.0978 15.6357 12.5056 16.875C12.495 16.875 12.4844 16.875 12.4684 16.875H1.13156C0.51 16.875 0 16.3688 0 15.7518ZM21.5316 16.875C21.5209 16.875 21.5103 16.875 21.4944 16.875C22.9075 15.6357 23.7947 13.827 23.7947 11.8125C23.7947 11.4117 23.7575 11.0215 23.6938 10.6365C24.4163 10.3043 25.2184 10.125 26.0631 10.125H28.3316C31.4606 10.125 34 12.6457 34 15.7518C34 16.374 33.49 16.875 32.8684 16.875H21.5316ZM22.1 11.8125C22.1 14.6074 19.8156 16.875 17 16.875C14.1844 16.875 11.9 14.6074 11.9 11.8125C11.9 9.01758 14.1844 6.75 17 6.75C19.8156 6.75 22.1 9.01758 22.1 11.8125ZM6.8 25.592C6.8 21.7107 9.97156 18.5625 13.8816 18.5625H20.1184C24.0284 18.5625 27.2 21.7107 27.2 25.592C27.2 26.3672 26.5678 27 25.7816 27H8.21844C7.4375 27 6.8 26.3725 6.8 25.592V25.592Z" fill="#222222"/>
</g>
<defs>
<clipPath id="clip0_411_5">
<rect width="34" height="27" fill="white"/>
</clipPath>
</defs>
</svg>
