<svg width="15" height="15" viewBox="0 0 15 15" fill="none" xmlns="http://www.w3.org/2000/svg">
<g clip-path="url(#clip0_447_168)">
<path d="M10.3125 9.375C12.9023 9.375 15 7.27734 15 4.6875C15 4.23926 14.9355 3.80566 14.8184 3.39258C14.7275 3.07617 14.3379 3.00586 14.1064 3.2373L11.8564 5.4873C11.7686 5.5752 11.6484 5.625 11.5254 5.625H9.84375C9.58594 5.625 9.375 5.41406 9.375 5.15625V3.47461C9.375 3.35156 9.42481 3.23145 9.5127 3.14355L11.7627 0.893555C11.9941 0.662109 11.9209 0.272461 11.6074 0.181641C11.1943 0.0644531 10.7607 0 10.3125 0C7.72266 0 5.625 2.09766 5.625 4.6875C5.625 5.24707 5.72461 5.78613 5.90332 6.28418L0.583008 11.6045C0.210937 11.9766 0 12.4834 0 13.0107C0 14.1094 0.890625 15 1.98926 15C2.5166 15 3.02344 14.7891 3.39551 14.417L8.71582 9.09668C9.21387 9.27832 9.75293 9.375 10.3125 9.375ZM2.34375 13.3594C1.9541 13.3594 1.64062 13.0459 1.64062 12.6562C1.64062 12.2666 1.9541 11.9531 2.34375 11.9531C2.7334 11.9531 3.04688 12.2666 3.04688 12.6562C3.04688 13.0459 2.7334 13.3594 2.34375 13.3594Z" fill="white"/>
</g>
<defs>
<clipPath id="clip0_447_168">
<rect width="15" height="15" fill="white"/>
</clipPath>
</defs>
</svg>
