<svg width="22" height="22" viewBox="0 0 22 22" fill="none" xmlns="http://www.w3.org/2000/svg">
<g clip-path="url(#clip0_492_334)">
<path d="M7.08555 1.0569C6.75469 0.257683 5.88242 -0.167708 5.04883 0.0600265L1.26758 1.09128C0.519922 1.29753 0 1.97643 0 2.74987C0 13.3803 8.61953 21.9999 19.25 21.9999C20.0234 21.9999 20.7023 21.48 20.9086 20.7323L21.9398 16.951C22.1676 16.1174 21.7422 15.2452 20.943 14.9143L16.818 13.1956C16.1176 12.9034 15.3055 13.1053 14.8285 13.694L13.0926 15.8124C10.0676 14.3815 7.61836 11.9323 6.1875 8.90729L8.30586 7.17565C8.89453 6.6944 9.09648 5.88659 8.8043 5.1862L7.08555 1.0612V1.0569Z" fill="white"/>
</g>
<defs>
<clipPath id="clip0_492_334">
<rect width="22" height="22" fill="white"/>
</clipPath>
</defs>
</svg>
