<svg width="26" height="26" viewBox="0 0 26 26" fill="none" xmlns="http://www.w3.org/2000/svg">
<path d="M3.25 5.6875C2.80312 5.6875 2.4375 6.05312 2.4375 6.5V7.62227L11.1973 14.8129C12.2484 15.6762 13.7566 15.6762 14.8078 14.8129L23.5625 7.62227V6.5C23.5625 6.05312 23.1969 5.6875 22.75 5.6875H3.25ZM2.4375 10.7758V19.5C2.4375 19.9469 2.80312 20.3125 3.25 20.3125H22.75C23.1969 20.3125 23.5625 19.9469 23.5625 19.5V10.7758L16.3516 16.6969C14.4016 18.2965 11.5934 18.2965 9.64844 16.6969L2.4375 10.7758ZM0 6.5C0 4.70742 1.45742 3.25 3.25 3.25H22.75C24.5426 3.25 26 4.70742 26 6.5V19.5C26 21.2926 24.5426 22.75 22.75 22.75H3.25C1.45742 22.75 0 21.2926 0 19.5V6.5Z" fill="white"/>
</svg>
