<svg width="27" height="24" viewBox="0 0 27 24" fill="none" xmlns="http://www.w3.org/2000/svg">
<path d="M9.75 12C11.407 12 12.75 10.657 12.75 9C12.75 7.34297 11.407 6 9.75 6C8.09297 6 6.75 7.34297 6.75 9C6.75 10.6547 8.09531 12 9.75 12ZM21.75 10.875H17.25C16.6289 10.875 16.125 11.3789 16.125 12C16.125 12.6211 16.6289 13.125 17.25 13.125H21.75C22.3711 13.125 22.875 12.6211 22.875 12C22.875 11.3789 22.3734 10.875 21.75 10.875ZM11.25 13.5H8.25C6.17812 13.5 4.5 15.1781 4.5 17.25C4.5 17.6625 4.8375 18 5.25 18H14.25C14.6642 18 15 17.6642 15 17.25C15 15.1781 13.3219 13.5 11.25 13.5ZM21.75 7.125H17.25C16.6289 7.125 16.125 7.62891 16.125 8.25C16.125 8.87109 16.6289 9.375 17.25 9.375H21.75C22.3711 9.375 22.875 8.87109 22.875 8.25C22.875 7.62891 22.3734 7.125 21.75 7.125ZM24 1.5H3C1.34297 1.5 0 2.84297 0 4.5V19.5C0 21.157 1.34297 22.5 3 22.5H24C25.657 22.5 27 21.157 27 19.5V4.5C27 2.84297 25.6547 1.5 24 1.5ZM24.75 19.5C24.75 19.9135 24.4135 20.25 24 20.25H3C2.58647 20.25 2.25 19.9135 2.25 19.5V4.5C2.25 4.08647 2.58647 3.75 3 3.75H24C24.4135 3.75 24.75 4.08647 24.75 4.5V19.5Z" fill="white"/>
</svg>
