<svg width="23" height="20" viewBox="0 0 23 20" fill="none" xmlns="http://www.w3.org/2000/svg">
<path d="M16.2917 4.75777C16.2917 6.92255 13.3727 10.7803 12.091 12.3702C11.7835 12.7508 11.2125 12.7508 10.909 12.3702C9.62726 10.7803 6.70833 6.92255 6.70833 4.75777C6.70833 2.1291 8.8526 0 11.5 0C14.1474 0 16.2917 2.1291 16.2917 4.75777ZM16.6111 7.94547C16.7509 7.6719 16.8786 7.39833 16.9944 7.12872C17.0144 7.08114 17.0344 7.0296 17.0543 6.98202L21.6863 5.14235C22.3172 4.89257 23 5.35249 23 6.02651V16.7632C23 17.1518 22.7604 17.5007 22.397 17.6474L16.6111 19.943V7.94547ZM5.49444 5.48333C5.59028 6.04236 5.78194 6.60537 6.00556 7.12872C6.12135 7.39833 6.24913 7.6719 6.38889 7.94547V17.913L1.31372 19.9311C0.682813 20.1809 0 19.7209 0 19.0469V8.31023C0 7.92168 0.239583 7.57278 0.602951 7.42608L5.49844 5.48333H5.49444ZM13.0892 13.1632C13.6443 12.4733 14.5148 11.3512 15.3333 10.1103V19.9945L7.66667 17.8178V10.1103C8.48524 11.3512 9.35573 12.4733 9.91076 13.1632C10.7293 14.1781 12.2707 14.1781 13.0892 13.1632V13.1632ZM11.5 6.02651C12.3825 6.02651 13.0972 5.3168 13.0972 4.44058C13.0972 3.56436 12.3825 2.85466 11.5 2.85466C10.6175 2.85466 9.90278 3.56436 9.90278 4.44058C9.90278 5.3168 10.6175 6.02651 11.5 6.02651Z" fill="white"/>
</svg>
