<svg width="25" height="24" viewBox="0 0 25 24" fill="none" xmlns="http://www.w3.org/2000/svg">
<path d="M8.98438 2.34375H16.0156C16.2305 2.34375 16.4062 2.51953 16.4062 2.73438V4.6875H8.59375V2.73438C8.59375 2.51953 8.76953 2.34375 8.98438 2.34375ZM6.25 2.73438V4.6875H3.125C1.40137 4.6875 0 6.08887 0 7.8125V20.3125C0 22.0361 1.40137 23.4375 3.125 23.4375H21.875C23.5986 23.4375 25 22.0361 25 20.3125V7.8125C25 6.08887 23.5986 4.6875 21.875 4.6875H18.75V2.73438C18.75 1.22559 17.5244 0 16.0156 0H8.98438C7.47559 0 6.25 1.22559 6.25 2.73438ZM10.9375 10.1562C10.9375 9.72656 11.2891 9.375 11.7188 9.375H13.2812C13.7109 9.375 14.0625 9.72656 14.0625 10.1562V12.5H16.4062C16.8359 12.5 17.1875 12.8516 17.1875 13.2812V14.8438C17.1875 15.2734 16.8359 15.625 16.4062 15.625H14.0625V17.9688C14.0625 18.3984 13.7109 18.75 13.2812 18.75H11.7188C11.2891 18.75 10.9375 18.3984 10.9375 17.9688V15.625H8.59375C8.16406 15.625 7.8125 15.2734 7.8125 14.8438V13.2812C7.8125 12.8516 8.16406 12.5 8.59375 12.5H10.9375V10.1562Z" fill="white"/>
</svg>
